<svg width="39" height="39" viewBox="0 0 39 39" fill="none" xmlns="http://www.w3.org/2000/svg">
<rect width="39" height="39" rx="19.5" fill="#E5EA00"/>
<path d="M19.3956 21.1053C19.5108 21.9729 19.235 22.8825 18.5683 23.5493L15.9703 26.1472C14.8333 27.2843 12.9898 27.2843 11.8528 26.1472C10.7157 25.0102 10.7157 23.1667 11.8528 22.0297L14.4507 19.4317C15.1175 18.765 16.0271 18.4892 16.8947 18.6044M18.6044 16.8947C18.4892 16.0271 18.765 15.1175 19.4317 14.4507L22.0297 11.8528C23.1667 10.7157 25.0102 10.7157 26.1472 11.8528C27.2843 12.9898 27.2843 14.8333 26.1472 15.9703L23.5493 18.5683C22.8825 19.235 21.9729 19.5108 21.1053 19.3956M16.8947 21.1053L21.1053 16.8947" stroke="#212121" stroke-linecap="square"/>
</svg>
