<svg width="34" height="27" viewBox="0 0 34 27" fill="none" xmlns="http://www.w3.org/2000/svg">
<path d="M4.83514 26.5H29.6268C32.3986 26.5 34 24.9306 34 21.8221V5.1628C34 2.06936 32.3832 0.5 29.1649 0.5H4.37319C1.60145 0.5 0 2.05427 0 5.1628V21.8221C0 24.9457 1.61685 26.5 4.83514 26.5ZM15.1676 14.262L3.54167 3.02002C3.88043 2.88421 4.2808 2.80876 4.74275 2.80876H29.2572C29.7346 2.80876 30.1504 2.88421 30.4891 3.03511L18.894 14.262C18.2319 14.9109 17.6313 15.1976 17.0308 15.1976C16.4149 15.1976 15.8143 14.8958 15.1676 14.262ZM2.35598 21.8221V5.1628C2.35598 5.04208 2.35598 5.10244 2.35598 4.99681L11.2101 13.5226L2.37138 22.0786C2.35598 22.0032 2.35598 21.9127 2.35598 21.8221ZM31.644 5.17789V21.8372C31.644 21.8976 31.644 21.973 31.644 22.0334L22.8514 13.5226L31.644 5.04208C31.644 5.17789 31.644 5.17789 31.644 5.17789ZM4.74275 24.1912C4.31159 24.1912 3.94203 24.1309 3.61866 23.9951L12.827 15.0769L13.8279 16.0427C14.9058 17.0839 15.9375 17.5215 17.0308 17.5215C18.1087 17.5215 19.1558 17.0839 20.2337 16.0427L21.2346 15.0769L30.4275 23.98C30.0888 24.1309 29.7038 24.1912 29.2572 24.1912H4.74275Z" fill="#E6E6E6"/>
</svg>
