<svg width="28" height="30" viewBox="0 0 28 30" fill="none" xmlns="http://www.w3.org/2000/svg">
<path d="M21.6332 0.718523C21.2205 1.14416 21.2205 1.84441 21.6332 2.28379L26.1728 6.96584C26.5855 7.40522 27.2778 7.40522 27.6905 6.96584C28.1032 6.5402 28.1032 5.83995 27.6905 5.41431L23.1508 0.718523C22.7381 0.292882 22.0326 0.292882 21.6332 0.718523ZM6.76287 22.3027C10.6102 26.2708 15.283 29.3326 19.1038 29.3326C20.8211 29.3326 22.3254 28.7148 23.5369 27.3417C24.2425 26.5316 24.6818 25.5842 24.6818 24.6506C24.6818 23.964 24.4289 23.305 23.8032 22.8382L19.7162 19.8449C19.0905 19.4056 18.5713 19.1859 18.092 19.1859C17.4929 19.1859 16.9471 19.5429 16.3347 20.1607L15.3895 21.1219C15.2431 21.2729 15.0567 21.3415 14.8836 21.3415C14.6839 21.3415 14.4843 21.2592 14.3511 21.1905C13.5257 20.7374 12.1146 19.4879 10.7966 18.1424C9.49198 16.7968 8.28052 15.3414 7.85451 14.4901C7.78795 14.3391 7.70807 14.1468 7.70807 13.9409C7.70807 13.7624 7.76132 13.5839 7.90776 13.4329L8.85297 12.4305C9.43873 11.7989 9.79817 11.2497 9.79817 10.6181C9.79817 10.1238 9.57185 9.58835 9.13253 8.94302L6.2703 4.78271C5.80435 4.12366 5.15203 3.83532 4.43314 3.83532C3.5545 3.83532 2.64923 4.24723 1.86378 5.02986C0.572447 6.30679 0 7.88578 0 9.62954C0 13.5702 2.91549 18.3483 6.76287 22.3027ZM20.3152 8.33888C21.0341 9.03913 22.179 9.05286 22.8846 8.31142C23.5902 7.58371 23.5902 6.4029 22.8846 5.67519C22.179 4.93375 21.0208 4.93375 20.3152 5.66146C19.5963 6.4029 19.5963 7.56998 20.3152 8.33888ZM15.5226 7.00704C15.1099 7.43268 15.1099 8.14666 15.5226 8.5723L20.0623 13.2681C20.475 13.6937 21.1672 13.6937 21.5799 13.2681C21.9926 12.8424 21.9926 12.1285 21.5799 11.7028L17.027 7.00704C16.6143 6.58139 15.9353 6.58139 15.5226 7.00704ZM14.2047 14.6137C14.9236 15.3551 16.0685 15.3551 16.7874 14.6137C17.5062 13.8722 17.5062 12.6914 16.7874 11.9774C16.0685 11.2223 14.9236 11.2223 14.2047 11.95C13.4991 12.6914 13.4991 13.8722 14.2047 14.6137Z" fill="#D9D9D9"/>
</svg>
