<svg width="30" height="30" viewBox="0 0 30 30" fill="none" xmlns="http://www.w3.org/2000/svg">
<path d="M11.6528 8.21417L11.6531 8.21483C11.8484 8.64994 12.1735 9.44184 12.4348 10.078L12.4382 10.0864C12.5409 10.3364 12.6338 10.5626 12.7063 10.7369C12.7426 10.8241 12.7732 10.8969 12.7971 10.9525C12.809 10.9804 12.8188 11.0028 12.8265 11.0199L12.8355 11.04C12.8376 11.0443 12.8385 11.0462 12.8385 11.0462L12.8384 11.046L12.3916 11.2703M11.6528 8.21417L22.6389 20.3618C22.9579 19.4608 22.9579 18.6927 22.8614 18.5303L23.2915 18.2751C23.2914 18.2751 23.2914 18.275 23.2914 18.275C23.191 18.1059 23.0442 17.9996 22.9296 17.9296C22.8188 17.8619 22.6862 17.7983 22.5638 17.7396L22.5493 17.7327C22.4829 17.7009 22.4147 17.6682 22.3422 17.6321L22.3422 17.632C22.147 17.5349 21.5737 17.2533 21.0044 16.9793C20.4495 16.7121 19.8582 16.4324 19.6527 16.3558L19.6527 16.3557C19.4855 16.2934 19.2234 16.1972 18.9463 16.2298C18.6168 16.2686 18.3738 16.4662 18.1942 16.7381C17.9536 17.0928 17.2391 17.9265 17.0065 18.1966L17.0064 18.1966C16.9846 18.222 16.9693 18.2356 16.9608 18.2423C16.94 18.2397 16.8826 18.2275 16.7695 18.1712C16.6944 18.1339 16.5983 18.0924 16.5016 18.0507L16.4912 18.0462L16.49 18.0457C15.9635 17.8185 14.9465 17.3797 13.7703 16.3326L13.7695 16.3318C12.6788 15.3653 11.9315 14.1565 11.7184 13.789C11.705 13.7659 11.6974 13.7489 11.693 13.7377C11.6962 13.7332 11.7004 13.7276 11.7058 13.721C11.729 13.6924 11.7593 13.6612 11.8092 13.6115L11.8095 13.6113C11.9355 13.4858 12.075 13.3171 12.195 13.172L12.2052 13.1598L11.82 12.841L12.2052 13.1598C12.2787 13.071 12.3474 12.988 12.4124 12.9134L12.4125 12.9132C12.6269 12.667 12.7233 12.4671 12.825 12.2559L12.8292 12.2471C12.8428 12.2189 12.8564 12.1908 12.8706 12.1616C13.0927 11.7063 12.9707 11.3093 12.8383 11.0459L12.3916 11.2703M11.6528 8.21417C11.4838 7.83901 11.2776 7.57269 11.008 7.41637C10.7476 7.26545 10.4919 7.25883 10.3538 7.25526C10.3504 7.25517 10.347 7.25508 10.3436 7.25499M11.6528 8.21417L12.4212 11.9423C12.5474 11.6839 12.488 11.4623 12.3916 11.2703M12.3916 11.2703C12.3493 11.1863 12.1807 10.7755 11.9757 10.2764L11.9757 10.2763L11.9757 10.2763C11.7123 9.6348 11.3889 8.84731 11.1969 8.41954C10.9075 7.77697 10.6032 7.76213 10.3288 7.75478M10.3288 7.75478L10.3453 7.25505C10.3447 7.25503 10.3442 7.25501 10.3436 7.25499M10.3288 7.75478L10.3422 7.25496C10.3426 7.25497 10.3431 7.25498 10.3436 7.25499M10.3288 7.75478L10.3436 7.25499M8.12199 7.95836L8.122 7.95835L8.12199 7.95836ZM8.12199 7.95836C7.6942 8.41047 6.70477 9.45992 6.70477 11.4403C6.70477 12.4852 7.08025 13.4853 7.46196 14.2396C7.84704 15.0006 8.26053 15.5539 8.37648 15.7091L8.37656 15.7092L8.37658 15.7092L8.3844 15.7197C8.3844 15.7197 8.3844 15.7197 8.38441 15.7197C8.38453 15.7198 8.38591 15.7217 8.38899 15.7261L8.40316 15.7466L8.45001 15.8156L8.45582 15.8242C8.95163 16.5571 11.4236 20.2111 15.2063 21.6986C16.698 22.2858 17.6796 22.5649 18.386 22.6833C19.1108 22.8049 19.5347 22.7548 19.8833 22.7126C19.9535 22.7042 20.0141 22.6969 20.0739 22.6912L8.12199 7.95836ZM8.15532 27.4923C8.04381 27.4319 7.91352 27.4161 7.79082 27.4481L0.879808 29.2533C0.805297 29.2727 0.737674 29.2042 0.758129 29.1299L2.60404 22.4295C2.63965 22.3003 2.62186 22.1622 2.55468 22.0462C1.29017 19.8628 0.625074 17.387 0.625978 14.8672V14.867C0.625978 6.94759 7.10769 0.5 15.0628 0.5C18.9302 0.5 22.5506 1.99862 25.2765 4.71174C28.0018 7.42438 29.4998 11.0339 29.4998 14.8744C29.4998 22.7937 23.0181 29.2413 15.0629 29.2413H15.0555C12.6384 29.2413 10.2641 28.6345 8.15532 27.4923Z" fill="white" stroke="white" stroke-linejoin="round"/>
</svg>
