<svg width="28" height="28" viewBox="0 0 28 28" fill="none" xmlns="http://www.w3.org/2000/svg">
<path d="M14 9.12507C11.3076 9.12507 9.12503 11.3077 9.12503 14.0001C9.12503 16.6925 11.3076 18.8751 14 18.8751C16.6924 18.8751 18.875 16.6925 18.875 14.0001C18.875 11.3077 16.6924 9.12507 14 9.12507Z" fill="white"/>
<path fill-rule="evenodd" clip-rule="evenodd" d="M6.15434 0.622271C11.3265 0.0442039 16.6736 0.0442039 21.8458 0.622271C24.6934 0.940532 26.9901 3.1842 27.3244 6.04178C27.9428 11.3293 27.9428 16.6709 27.3244 21.9584C26.9901 24.8159 24.6934 27.0596 21.8458 27.3779C16.6736 27.9559 11.3265 27.9559 6.15434 27.3779C3.30674 27.0596 1.00995 24.8159 0.67573 21.9584C0.0573086 16.6709 0.0573086 11.3293 0.67573 6.04178C1.00995 3.1842 3.30674 0.940532 6.15434 0.622271ZM21.5 5.00007C20.6716 5.00007 20 5.67164 20 6.50007C20 7.3285 20.6716 8.00007 21.5 8.00007C22.3285 8.00007 23 7.3285 23 6.50007C23 5.67164 22.3285 5.00007 21.5 5.00007ZM6.87503 14.0001C6.87503 10.065 10.065 6.87507 14 6.87507C17.9351 6.87507 21.125 10.065 21.125 14.0001C21.125 17.9351 17.9351 21.1251 14 21.1251C10.065 21.1251 6.87503 17.9351 6.87503 14.0001Z" fill="white"/>
</svg>
