<svg width="31" height="27" viewBox="0 0 31 27" fill="none" xmlns="http://www.w3.org/2000/svg">
<path fill-rule="evenodd" clip-rule="evenodd" d="M25.7245 24.6851L25.7255 24.6825L25.7516 24.6173L30.2498 1.93864V1.86498C30.2498 1.29993 30.041 0.806639 29.5867 0.51075C29.189 0.251757 28.7319 0.233313 28.4113 0.257643C28.0723 0.283376 27.7526 0.367999 27.5313 0.438439C27.4175 0.474679 27.3222 0.509597 27.254 0.536007C27.2198 0.549261 27.1921 0.560509 27.1719 0.568889L27.1521 0.577225L2.0724 10.4156L2.0655 10.4181C2.05196 10.423 2.03404 10.4297 2.01241 10.4381C1.96928 10.4549 1.91057 10.479 1.8416 10.5102C1.70618 10.5716 1.51907 10.6663 1.32932 10.7962C1.00704 11.0169 0.393368 11.5394 0.496991 12.3678C0.582822 13.0539 1.05578 13.4896 1.37463 13.7152C1.54555 13.8362 1.70907 13.9234 1.82881 13.9804C1.88949 14.0093 1.94102 14.0314 1.9794 14.047C1.99865 14.0549 2.01474 14.0611 2.02719 14.0658L2.04312 14.0718L2.05331 14.0756L6.44117 15.5528C6.42636 15.8281 6.45367 16.1088 6.52668 16.3857L8.7246 24.7234C8.98521 25.7119 9.87955 26.4006 10.9019 26.3998C11.8183 26.3992 12.631 25.8448 12.9763 25.0176L16.4078 21.3485L22.3013 25.8669L22.3851 25.9034C22.9206 26.1371 23.4208 26.2111 23.8782 26.1486C24.3349 26.0862 24.6979 25.8947 24.9705 25.6766C25.2388 25.4619 25.4227 25.2197 25.5383 25.0373C25.5971 24.9447 25.6409 24.8632 25.6713 24.8019C25.6865 24.7711 25.6985 24.7451 25.7076 24.7248L25.7189 24.6987L25.7229 24.689L25.7245 24.6851ZM8.70228 15.8122C8.65232 15.6227 8.73074 15.4227 8.89617 15.3176L23.7792 5.86623C23.7792 5.86623 24.6546 5.33479 24.6233 5.86623C24.6233 5.86623 24.7795 5.96008 24.3104 6.39768C23.8655 6.81329 13.7029 16.6249 12.6746 17.6177C12.6153 17.675 12.5798 17.7408 12.5589 17.8206L10.9002 24.1498L8.70228 15.8122Z" fill="white"/>
</svg>
