<svg width="48" height="48" viewBox="0 0 48 48" fill="none" xmlns="http://www.w3.org/2000/svg">
<g clip-path="url(#clip0_1968_4784)">
<rect width="48" height="48" rx="24" fill="#419FD9"/>
<path fill-rule="evenodd" clip-rule="evenodd" d="M29.3351 35.8841C31.0126 36.618 31.6417 35.0803 31.6417 35.0803L36.0801 12.7834C36.0451 11.2806 34.0181 12.1892 34.0181 12.1892L9.17002 21.9398C9.17002 21.9398 7.98179 22.3591 8.08663 23.0931C8.19147 23.827 9.13507 24.1764 9.13507 24.1764L15.3908 26.2733C15.3908 26.2733 17.278 32.4591 17.6624 33.6474C18.0119 34.8007 18.3264 34.8356 18.3264 34.8356C18.6759 34.9754 18.9904 34.7308 18.9904 34.7308L23.0444 31.0612L29.3351 35.8841ZM30.4185 16.7325C30.4185 16.7325 31.2922 16.2082 31.2572 16.7325C31.2572 16.7325 31.397 16.8023 30.9427 17.2916C30.5233 17.711 20.633 26.5878 19.305 27.7761C19.2001 27.846 19.1302 27.9508 19.1302 28.0906L18.7458 31.3757C18.6759 31.7252 18.2216 31.7601 18.1168 31.4456L16.4742 26.0636C16.4043 25.8539 16.4742 25.6093 16.6839 25.4695L30.4185 16.7325Z" fill="white"/>
</g>
<defs>
<clipPath id="clip0_1968_4784">
<rect width="48" height="48" fill="white"/>
</clipPath>
</defs>
</svg>
