<svg width="41" height="28" viewBox="0 0 41 28" fill="none" xmlns="http://www.w3.org/2000/svg">
<path fill-rule="evenodd" clip-rule="evenodd" d="M4.21646 26.7023C3.48542 26.4934 2.81841 26.1217 2.27169 25.6187C1.72498 25.1157 1.31461 24.4961 1.07522 23.8122C-0.292738 20.2773 -0.69806 5.51647 1.93653 2.60253C2.81337 1.65461 4.05134 1.07099 5.38175 0.978367C12.4495 0.261823 34.2862 0.357363 36.7941 1.21722C37.4995 1.43298 38.144 1.79646 38.6792 2.28042C39.2144 2.76438 39.6266 3.35627 39.8847 4.01173C41.3793 7.6661 41.43 20.946 39.682 24.4571C39.2184 25.371 38.4421 26.1114 37.4781 26.559C34.8435 27.801 7.71235 27.7771 4.21646 26.7023ZM15.4388 19.7757L28.1051 13.5656L15.4388 7.30783V19.7757Z" fill="white"/>
</svg>
